<svg xmlns="http://www.w3.org/2000/svg" viewBox="0 0 1037.93 1037.93"><defs><style>.cls-1{fill:#f42f2f;}.cls-2{fill:#fff;}</style></defs><title>bell noti</title><g id="Capa_2" data-name="Capa 2"><g id="Capa_1-2" data-name="Capa 1"><circle class="cls-1" cx="518.97" cy="518.97" r="518.97"/><path class="cls-2" d="M388.45,295.66l-37.83-37.93A277.61,277.61,0,0,0,241.28,465.9h53.06A224.06,224.06,0,0,1,388.45,295.66ZM743.59,465.9h53.06A277.15,277.15,0,0,0,687.1,257.73l-37.92,37.93A223.47,223.47,0,0,1,743.59,465.9Zm-52.23,13.31c0-81.43-56.46-149.6-132.64-167.61V293.53a39.76,39.76,0,1,0-79.51,0V311.6c-76.18,18-132.64,86.2-132.64,167.61V625.06l-53,53v26.51H744.4V678.06l-53-53ZM519,784.18a44.63,44.63,0,0,0,10.65-1.07,53.44,53.44,0,0,0,42.41-52H465.9A53.23,53.23,0,0,0,519,784.18Z"/></g></g></svg>